<svg width="32" height="32" viewBox="0 0 32 32" fill="none" xmlns="http://www.w3.org/2000/svg">
  <defs>
    <radialGradient id="bgGradient" cx="50%" cy="50%" r="60%">
      <stop offset="0%" style="stop-color:#ff6b9d"/>
      <stop offset="100%" style="stop-color:#c44569"/>
    </radialGradient>
    <linearGradient id="heartGradient" x1="0%" y1="0%" x2="100%" y2="100%">
      <stop offset="0%" style="stop-color:#ffffff"/>
      <stop offset="100%" style="stop-color:#ffeef6"/>
    </linearGradient>
    <filter id="glow">
      <feGaussianBlur stdDeviation="1" result="coloredBlur"/>
      <feMerge>
        <feMergeNode in="coloredBlur"/>
        <feMergeNode in="SourceGraphic"/>
      </feMerge>
    </filter>
  </defs>

  <!-- Background circle -->
  <circle cx="16" cy="16" r="15" fill="url(#bgGradient)"/>

  <!-- Heart shape -->
  <path d="M16,24 C13,21 10,18 10,15 C10,12.8 11.3,11.5 13.5,11.5 C14.8,11.5 15.8,12.1 16,12.8 C16.2,12.1 17.2,11.5 18.5,11.5 C20.7,11.5 22,12.8 22,15 C22,18 19,21 16,24 Z"
        fill="url(#heartGradient)"
        filter="url(#glow)"/>

  <!-- Sparkles -->
  <circle cx="11" cy="9" r="1" fill="#ffffff" opacity="0.8"/>
  <circle cx="23" cy="11" r="0.8" fill="#ffffff" opacity="0.6"/>
  <circle cx="8" cy="20" r="0.8" fill="#ffffff" opacity="0.7"/>
  <circle cx="25" cy="22" r="1" fill="#ffffff" opacity="0.5"/>

  <!-- Small star -->
  <path d="M20,8 L20.5,9 L21.5,9 L20.8,9.5 L21,10.5 L20,10 L19,10.5 L19.2,9.5 L18.5,9 L19.5,9 Z" fill="#ffffff" opacity="0.6"/>
</svg>